<?xml version="1.0" standalone="no"?>
<!DOCTYPE svg PUBLIC "-//W3C//DTD SVG 20010904//EN"
 "http://www.w3.org/TR/2001/REC-SVG-20010904/DTD/svg10.dtd">
<svg version="1.0" xmlns="http://www.w3.org/2000/svg"
 width="260.000000pt" height="260.000000pt" viewBox="0 0 260.000000 260.000000"
 preserveAspectRatio="xMidYMid meet">
<metadata>
Created by potrace 1.14, written by Peter Selinger 2001-2017
</metadata>
<g transform="translate(0.000000,260.000000) scale(0.100000,-0.100000)"
fill="#000000" stroke="none">
<path d="M0 1300 l0 -1300 1300 0 1300 0 0 1300 0 1300 -1300 0 -1300 0 0
-1300z m857 539 c46 -23 55 -24 65 -11 10 12 47 13 228 10 200 -4 220 -6 282
-30 88 -33 160 -89 209 -162 l39 -58 0 109 c0 71 4 113 12 121 8 8 66 12 194
12 153 0 192 -3 246 -20 82 -25 147 -81 185 -158 25 -50 28 -68 28 -152 0 -75
-4 -104 -21 -141 -28 -61 -78 -116 -128 -141 -23 -11 -42 -22 -44 -23 -2 -1
54 -106 122 -233 74 -136 123 -238 120 -247 -4 -8 -18 -15 -33 -15 -24 0 -37
20 -155 241 -93 172 -133 238 -143 234 -8 -3 -82 -5 -164 -5 l-149 0 0 -230
c0 -204 -2 -231 -16 -237 -9 -3 -24 -2 -33 4 -13 8 -17 33 -19 137 l-3 126
-42 -62 c-52 -75 -139 -138 -235 -169 -57 -18 -98 -23 -265 -27 -211 -5 -227
-2 -227 44 l0 23 -57 -27 c-76 -35 -211 -43 -299 -17 -146 42 -254 157 -311
330 -23 70 -26 98 -27 220 -1 157 9 212 59 320 55 119 152 209 264 247 86 28
247 21 318 -13z"/>
<path d="M548 1776 c-115 -47 -198 -144 -241 -281 -31 -101 -31 -299 0 -400
41 -132 120 -227 230 -278 39 -18 66 -22 148 -22 95 0 103 2 163 34 l62 34 0
431 0 432 -32 19 c-69 42 -112 54 -193 54 -61 0 -93 -5 -137 -23z"/>
<path d="M991 1752 c64 -89 81 -116 99 -163 29 -71 24 -104 -14 -104 -25 0
-30 5 -41 40 -6 22 -21 58 -33 80 l-21 40 0 -350 0 -350 21 40 c12 22 27 58
33 80 11 35 16 40 41 40 24 0 30 -5 32 -28 4 -36 -53 -160 -97 -209 -18 -20
-31 -47 -31 -62 l0 -26 143 0 c83 0 169 6 208 14 219 47 339 217 339 480 -1
179 -45 301 -142 391 -92 85 -135 98 -362 103 -188 4 -190 4 -175 -16z"/>
<path d="M1750 1500 l0 -260 145 0 c79 0 167 5 195 11 64 14 127 61 160 119
34 62 36 194 3 256 -57 106 -129 134 -350 134 l-153 0 0 -260z"/>
</g>
</svg>
